# xmcd CD database file
#
# Track frame offsets:
#	183
#	10058
#	23738
#	39905
#	58920
#	73558
#	90500
#	105513
#	117523
#	130498
#
# Disc length: 1962 seconds
#
# Revision: 0
# Processed by: cddbd v1.4PL0 Copyright (c) Steve Scherf et al.
# Submitted via: CDex 1.51
#
DISCID=7d07a80a
DTITLE=Ronnie Hawkins and the Hawks - Hello again Mary Lou
DYEAR=1990
DGENRE=Country
TTITLE0=Mary Lou
TTITLE1=Don't start me rockin'
TTITLE2=Girl with the dark brown hair
TTITLE3=Lucy
TTITLE4=Looking for more good times
TTITLE5=Days gone by
TTITLE6=Baby Jean
TTITLE7=Livin' a life I can't afford
TTITLE8=Mama come home
TTITLE9=Who'll stop the rain
EXTD=YEAR: 1990
EXTT0=
EXTT1=
EXTT2=
EXTT3=
EXTT4=
EXTT5=
EXTT6=
EXTT7=
EXTT8=
EXTT9=
PLAYORDER=
